# xmcd
#
# Track frame offsets:
# 150
# 22050
# 44325
#
# Disc length: 809 seconds
#
#
# Revision: 0
# Processed by: cddbd v1.5.1PL0 Copyright (c) Steve Scherf et al.
# Submitted via: FreeRIP 2.941 
#
DISCID=20032703
DTITLE=BluesEye - BluesEye Demo 2
DYEAR=2005
DGENRE=Blues
TTITLE0=Voodoo Woman
TTITLE1=Use What You Got
TTITLE2=Sugar Coated Love
EXTD=
EXTT0=
EXTT1=
EXTT2=
PLAYORDER=
